<svg width="38" height="27" viewBox="0 0 38 27" fill="none" xmlns="http://www.w3.org/2000/svg">
<path fill-rule="evenodd" clip-rule="evenodd" d="M1.41533 12.4323C1.41533 12.4323 2.23171 12.2934 2.56812 12.656C2.90485 13.0183 2.68423 13.7681 2.23739 13.7805C1.79059 13.7929 1.37765 13.878 1.08445 13.557C0.79126 13.2359 0.869975 12.5907 1.41533 12.4323ZM10.2776 17.5491C10.199 17.5576 10.1158 17.5204 10.0305 17.4576C9.44519 16.6164 9.23378 13.7399 8.9651 13.5685C8.6865 13.391 7.67757 15.1623 5.67067 14.9719C4.83148 14.8922 3.97749 14.3315 3.47453 13.9431C3.52132 13.2896 3.52948 11.7633 4.77933 12.2596C5.53872 12.5611 6.83897 13.3889 7.9809 11.9023C9.24347 10.2582 9.93985 10.7359 10.3575 11.0932C10.775 11.4506 10.4968 13.3092 11.1196 12.7895C11.7424 12.27 14.2571 9.04396 14.2571 9.04396C14.2571 9.04396 16.204 7.01909 16.5021 9.14779C16.8004 11.2764 18.0698 13.6354 18.4061 13.5682C18.7428 13.5009 22.659 5.29242 23.22 4.76287C23.781 4.23321 25.6692 4.30274 25.5795 5.66132C25.4897 7.01991 25.2974 15.4642 25.2974 15.4642C25.2974 15.4642 25.0758 17.8438 25.4367 16.572C25.5864 16.0448 25.747 15.5691 25.948 15.0143C26.9145 11.8232 28.5609 6.37182 29.3813 3.56284C29.57 2.89072 29.7324 2.31381 29.8584 1.87036L29.8587 1.86907C29.9077 1.66362 29.9564 1.50076 30.0052 1.35551C30.0738 1.11739 30.1203 0.95989 30.1345 0.918356C30.1711 0.813356 30.274 0.733206 30.4184 0.674406C30.5635 0.580139 30.719 0.575239 30.8954 0.570573C31.3506 0.528456 31.9362 0.589706 32.4628 0.744406C32.6161 0.750706 32.783 0.801339 32.9407 0.918123C32.9407 0.918123 32.9501 0.924307 32.9634 0.933173C32.9671 0.93609 32.9708 0.938073 32.9745 0.941106C33.0075 0.96479 33.061 1.01134 33.1227 1.08811C33.1246 1.09056 33.1265 1.09359 33.1286 1.09581C33.1542 1.12812 33.18 1.16639 33.2062 1.21002C33.5002 1.65487 33.6809 2.47492 33.4999 3.92941C33.0484 7.55856 32.6987 15.0246 32.6987 15.0246C32.6987 15.0246 32.6292 15.3818 33.3546 13.8093C33.3801 13.7546 33.4124 13.7074 33.442 13.6571C33.4813 13.6305 33.5252 13.5922 33.5797 13.5247C34.0278 12.9735 35.2325 12.65 36.0679 12.6565C36.42 12.7004 36.7149 12.7918 36.891 12.9066C37.2207 13.4241 37.0261 15.334 37.0261 15.334C36.3311 15.4003 35.0064 15.786 34.5367 15.8571C34.067 15.9288 33.3536 19.0739 32.3619 18.7523C31.3701 18.4306 29.1602 17.001 29.1602 16.8045C29.1602 16.6332 29.3339 14.544 29.3792 14.0047C29.3825 13.9674 29.3852 13.9329 29.3878 13.8985C29.3889 13.8885 29.3898 13.8769 29.3898 13.8769C29.4218 13.4522 29.3932 13.2672 29.203 13.6911C29.0392 14.0557 28.3273 16.3887 27.5337 18.9296C27.4498 19.1516 25.9496 23.8338 25.7526 24.4046C25.5177 25.0667 25.32 25.5736 25.1836 25.8358C24.976 26.1261 24.6963 26.3077 24.3057 26.1858C23.3314 25.8822 22.0975 24.4937 22.086 24.1491C22.0626 22.2062 22.1776 11.7589 21.7207 12.6295C21.252 13.5222 17.6068 19.7171 17.6068 19.7171C17.5458 19.7279 17.5007 19.726 17.4469 19.731C17.1888 19.7019 16.7889 19.6154 16.6783 19.3606C16.6722 19.3456 16.6642 19.332 16.6588 19.3162C16.6536 19.3005 16.6476 19.2826 16.6385 19.2538C16.589 19.0832 16.5687 18.8981 16.5251 18.7464C16.362 18.1788 16.101 17.3656 15.8273 16.538C15.4078 15.1272 14.9752 13.684 14.904 13.5247C14.765 13.2129 14.5622 13.3443 14.3803 13.5244C13.5668 14.2361 11.8385 17.3773 10.2776 17.5491Z" fill="#FFA202"/>
</svg>
