<svg width="56" height="57" viewBox="0 0 56 57" fill="none" xmlns="http://www.w3.org/2000/svg">
<path d="M9.3335 1.55697H46.6668V-0.776367H9.3335V1.55697ZM54.8335 9.72363V47.057H57.1668V9.72363H54.8335ZM46.6668 55.2236H9.3335V57.557H46.6668V55.2236ZM1.16683 47.057V9.72363H-1.1665V47.057H1.16683ZM9.3335 55.2236C4.82317 55.2236 1.16683 51.5673 1.16683 47.057H-1.1665C-1.1665 52.856 3.53451 57.557 9.3335 57.557V55.2236ZM54.8335 47.057C54.8335 51.5673 51.1772 55.2236 46.6668 55.2236V57.557C52.4659 57.557 57.1668 52.856 57.1668 47.057H54.8335ZM46.6668 1.55697C51.1772 1.55697 54.8335 5.21331 54.8335 9.72363H57.1668C57.1668 3.92465 52.4659 -0.776367 46.6668 -0.776367V1.55697ZM9.3335 -0.776367C3.53451 -0.776367 -1.1665 3.92465 -1.1665 9.72363H1.16683C1.16683 5.21331 4.82317 1.55697 9.3335 1.55697V-0.776367Z" fill="#EBEEF1"/>
</svg>
