<svg width="26" height="27" viewBox="0 0 26 27" fill="none" xmlns="http://www.w3.org/2000/svg">
<path d="M8.66699 9.16667C6.23166 9.16667 4.33366 11.0647 4.33366 13.5C4.33366 15.9353 6.23166 17.8333 8.66699 17.8333H10.8337C11.121 17.8333 11.3965 17.9475 11.5997 18.1506C11.8029 18.3538 11.917 18.6293 11.917 18.9167C11.917 19.204 11.8029 19.4795 11.5997 19.6827C11.3965 19.8859 11.121 20 10.8337 20H8.66699C5.03566 20 2.16699 17.1313 2.16699 13.5C2.16699 9.86867 5.03566 7 8.66699 7H10.8337C11.121 7 11.3965 7.11414 11.5997 7.3173C11.8029 7.52047 11.917 7.79602 11.917 8.08333C11.917 8.37065 11.8029 8.6462 11.5997 8.84937C11.3965 9.05253 11.121 9.16667 10.8337 9.16667H8.66699ZM14.0837 8.08333C14.0837 7.79602 14.1978 7.52047 14.401 7.3173C14.6041 7.11414 14.8797 7 15.167 7H17.3337C20.965 7 23.8337 9.86867 23.8337 13.5C23.8337 17.1313 20.965 20 17.3337 20H15.167C14.8797 20 14.6041 19.8859 14.401 19.6827C14.1978 19.4795 14.0837 19.204 14.0837 18.9167C14.0837 18.6293 14.1978 18.3538 14.401 18.1506C14.6041 17.9475 14.8797 17.8333 15.167 17.8333H17.3337C19.769 17.8333 21.667 15.9353 21.667 13.5C21.667 11.0647 19.769 9.16667 17.3337 9.16667H15.167C14.8797 9.16667 14.6041 9.05253 14.401 8.84937C14.1978 8.6462 14.0837 8.37065 14.0837 8.08333ZM7.58366 13.5C7.58366 13.2127 7.6978 12.9371 7.90096 12.734C8.10412 12.5308 8.37967 12.4167 8.66699 12.4167H17.3337C17.621 12.4167 17.8965 12.5308 18.0997 12.734C18.3029 12.9371 18.417 13.2127 18.417 13.5C18.417 13.7873 18.3029 14.0629 18.0997 14.266C17.8965 14.4692 17.621 14.5833 17.3337 14.5833H8.66699C8.37967 14.5833 8.10412 14.4692 7.90096 14.266C7.6978 14.0629 7.58366 13.7873 7.58366 13.5Z" fill="#1877F2"/>
</svg>
