<svg width="32" height="32" viewBox="0 0 32 32" fill="none" xmlns="http://www.w3.org/2000/svg">
<g filter="url(#filter0_d_11_743)">
<path fill-rule="evenodd" clip-rule="evenodd" d="M16.7776 0C17.6687 0 18.5348 0.340524 19.1558 0.932387C19.7756 1.52773 20.1178 2.34429 20.0917 3.17243C20.0942 3.35891 20.1601 3.57434 20.2796 3.76314C20.4775 4.07586 20.7898 4.29593 21.1607 4.38627C21.5316 4.47198 21.9198 4.42566 22.2496 4.24381C23.8426 3.39713 25.8699 3.90444 26.7796 5.37542L27.5549 6.62516C27.5748 6.65875 27.5922 6.69118 27.6072 6.72477C28.431 8.17374 27.881 9.99797 26.3502 10.8308C26.1275 10.95 25.947 11.1168 25.8226 11.3184C25.6297 11.6299 25.5762 12.0006 25.6732 12.3411C25.7728 12.6886 26.0105 12.977 26.3453 13.1553C27.1007 13.5596 27.6644 14.2406 27.8897 15.0271C28.1149 15.8124 27.9917 16.6648 27.5524 17.3679L26.7261 18.6489C25.8164 20.1037 23.7891 20.6075 22.2123 19.7597C22.002 19.6473 21.7593 19.5859 21.5179 19.5801H21.5104C21.1507 19.5801 20.7811 19.7226 20.5123 19.9716C20.2398 20.2253 20.0904 20.5635 20.0929 20.9225C20.0842 22.624 18.5971 24 16.7776 24H15.2183C13.3901 24 11.9029 22.6171 11.9029 20.9156C11.9004 20.7059 11.8357 20.4882 11.715 20.2994C11.5196 19.982 11.2035 19.755 10.8389 19.6647C10.4767 19.5743 10.0797 19.6241 9.75369 19.8002C8.97215 20.2056 8.05247 20.304 7.21119 20.084C6.37116 19.8627 5.64562 19.3253 5.22 18.613L4.44219 17.3656C3.53247 15.8969 4.07382 14.0148 5.64935 13.1669C6.09612 12.9272 6.37365 12.4801 6.37365 12.0006C6.37365 11.5211 6.09612 11.0728 5.64935 10.8331C4.07258 9.9806 3.53247 8.09382 4.44095 6.62516L5.28471 5.33604C6.18199 3.8836 8.21052 3.37165 9.79227 4.21717C10.0076 4.33647 10.2415 4.3967 10.4792 4.39902C11.2545 4.39902 11.9029 3.80368 11.9154 3.07167C11.9104 2.26437 12.2526 1.4895 12.8761 0.90459C13.5021 0.320834 14.3334 0 15.2183 0H16.7776ZM16.7776 1.73737H15.2183C14.8325 1.73737 14.4716 1.87752 14.199 2.13001C13.9277 2.38367 13.7796 2.72072 13.7821 3.07977C13.756 4.77313 12.2688 6.13638 10.468 6.13638C9.89058 6.13059 9.33429 5.98581 8.85143 5.7171C8.17318 5.35804 7.2871 5.57927 6.89011 6.22209L6.04759 7.51122C5.6618 8.13436 5.89825 8.95787 6.58521 9.32967C7.60445 9.87867 8.24038 10.9026 8.24038 12.0006C8.24038 13.0986 7.60445 14.1213 6.58272 14.6715C5.89949 15.0398 5.66304 15.8587 6.05879 16.4957L6.84406 17.7559C7.0382 18.0814 7.35555 18.3165 7.72267 18.4126C8.08856 18.5076 8.49177 18.4671 8.82778 18.2933C9.32185 18.0235 9.8968 17.8833 10.4742 17.8833C10.7592 17.8833 11.0442 17.9169 11.323 17.9864C12.1643 18.1972 12.8948 18.7207 13.3279 19.4238C13.6091 19.8651 13.7647 20.3805 13.7697 20.9063C13.7697 21.6592 14.4193 22.2626 15.2183 22.2626H16.7776C17.5728 22.2626 18.2225 21.6627 18.2262 20.9225C18.2212 20.1048 18.5647 19.3276 19.1932 18.7427C19.8129 18.1659 20.6791 17.8196 21.5453 17.8428C22.1127 17.8555 22.6591 17.998 23.1407 18.2528C23.8339 18.6223 24.7187 18.4022 25.1194 17.7652L25.9458 16.483C26.13 16.1876 26.1835 15.817 26.0852 15.4753C25.9881 15.1336 25.7442 14.8371 25.4156 14.6622C24.6465 14.2499 24.0977 13.5851 23.87 12.7882C23.6447 12.0064 23.7679 11.1527 24.2072 10.4497C24.4935 9.98639 24.9128 9.59606 25.4156 9.32735C26.0901 8.96019 26.3266 8.13899 25.9346 7.49964C25.9184 7.47416 25.9035 7.44752 25.891 7.41972L25.1617 6.24294C24.7648 5.60012 23.8812 5.37889 23.188 5.74606C22.4388 6.15839 21.5477 6.27653 20.6915 6.06689C19.8366 5.86072 19.1197 5.35688 18.673 4.64572C18.3867 4.20095 18.2312 3.68322 18.2262 3.15622C18.2374 2.7601 18.0881 2.40452 17.8168 2.14391C17.5467 1.88447 17.1671 1.73737 16.7776 1.73737ZM16.0034 8.07772C18.3269 8.07772 20.2173 9.83825 20.2173 12.0007C20.2173 14.1631 18.3269 15.9214 16.0034 15.9214C13.6799 15.9214 11.7896 14.1631 11.7896 12.0007C11.7896 9.83825 13.6799 8.07772 16.0034 8.07772ZM16.0034 9.81509C14.7091 9.81509 13.6563 10.7961 13.6563 12.0007C13.6563 13.2053 14.7091 14.184 16.0034 14.184C17.2977 14.184 18.3505 13.2053 18.3505 12.0007C18.3505 10.7961 17.2977 9.81509 16.0034 9.81509Z" fill="#676767"/>
</g>
<defs>
<filter id="filter0_d_11_743" x="0" y="0" width="32" height="32" filterUnits="userSpaceOnUse" color-interpolation-filters="sRGB">
<feFlood flood-opacity="0" result="BackgroundImageFix"/>
<feColorMatrix in="SourceAlpha" type="matrix" values="0 0 0 0 0 0 0 0 0 0 0 0 0 0 0 0 0 0 127 0" result="hardAlpha"/>
<feOffset dy="4"/>
<feGaussianBlur stdDeviation="2"/>
<feComposite in2="hardAlpha" operator="out"/>
<feColorMatrix type="matrix" values="0 0 0 0 0 0 0 0 0 0 0 0 0 0 0 0 0 0 0.25 0"/>
<feBlend mode="normal" in2="BackgroundImageFix" result="effect1_dropShadow_11_743"/>
<feBlend mode="normal" in="SourceGraphic" in2="effect1_dropShadow_11_743" result="shape"/>
</filter>
</defs>
</svg>
