<svg width="54" height="15" viewBox="0 0 54 15" fill="none" xmlns="http://www.w3.org/2000/svg">
<path opacity="0.65" d="M3.952 10.591C3.34533 10.591 2.79933 10.487 2.314 10.279C1.82867 10.0623 1.44733 9.759 1.17 9.369C0.892667 8.979 0.754 8.524 0.754 8.004H2.34C2.37467 8.394 2.52633 8.71467 2.795 8.966C3.07233 9.21733 3.458 9.343 3.952 9.343C4.46333 9.343 4.862 9.22167 5.148 8.979C5.434 8.72767 5.577 8.407 5.577 8.017C5.577 7.71367 5.486 7.46667 5.304 7.276C5.13067 7.08533 4.90967 6.938 4.641 6.834C4.381 6.73 4.017 6.61733 3.549 6.496C2.95967 6.34 2.47867 6.184 2.106 6.028C1.742 5.86333 1.43 5.612 1.17 5.274C0.91 4.936 0.78 4.48533 0.78 3.922C0.78 3.402 0.91 2.947 1.17 2.557C1.43 2.167 1.794 1.868 2.262 1.66C2.73 1.452 3.27167 1.348 3.887 1.348C4.76233 1.348 5.47733 1.569 6.032 2.011C6.59533 2.44433 6.90733 3.04233 6.968 3.805H5.33C5.304 3.47567 5.148 3.194 4.862 2.96C4.576 2.726 4.199 2.609 3.731 2.609C3.30633 2.609 2.95967 2.71733 2.691 2.934C2.42233 3.15067 2.288 3.46267 2.288 3.87C2.288 4.14733 2.37033 4.377 2.535 4.559C2.70833 4.73233 2.925 4.871 3.185 4.975C3.445 5.079 3.80033 5.19167 4.251 5.313C4.849 5.47767 5.33433 5.64233 5.707 5.807C6.08833 5.97167 6.409 6.22733 6.669 6.574C6.93767 6.912 7.072 7.367 7.072 7.939C7.072 8.39833 6.94633 8.83167 6.695 9.239C6.45233 9.64633 6.09267 9.97567 5.616 10.227C5.148 10.4697 4.59333 10.591 3.952 10.591ZM9.5747 2.388C9.30604 2.388 9.0807 2.297 8.8987 2.115C8.7167 1.933 8.6257 1.70767 8.6257 1.439C8.6257 1.17033 8.7167 0.945 8.8987 0.763C9.0807 0.581 9.30604 0.489999 9.5747 0.489999C9.8347 0.489999 10.0557 0.581 10.2377 0.763C10.4197 0.945 10.5107 1.17033 10.5107 1.439C10.5107 1.70767 10.4197 1.933 10.2377 2.115C10.0557 2.297 9.8347 2.388 9.5747 2.388ZM10.3027 3.337V10.5H8.8207V3.337H10.3027ZM15.1344 3.22C15.6891 3.22 16.1788 3.33267 16.6034 3.558C17.0368 3.77467 17.3748 4.04767 17.6174 4.377V3.337H19.1124V10.617C19.1124 11.2757 18.9738 11.8607 18.6964 12.372C18.4191 12.892 18.0161 13.2993 17.4874 13.594C16.9674 13.8887 16.3434 14.036 15.6154 14.036C14.6448 14.036 13.8388 13.8063 13.1974 13.347C12.5561 12.8963 12.1921 12.281 12.1054 11.501H13.5744C13.6871 11.8737 13.9254 12.1727 14.2894 12.398C14.6621 12.632 15.1041 12.749 15.6154 12.749C16.2134 12.749 16.6944 12.567 17.0584 12.203C17.4311 11.839 17.6174 11.3103 17.6174 10.617V9.421C17.3661 9.759 17.0238 10.045 16.5904 10.279C16.1658 10.5043 15.6804 10.617 15.1344 10.617C14.5104 10.617 13.9384 10.461 13.4184 10.149C12.9071 9.82833 12.4998 9.38633 12.1964 8.823C11.9018 8.251 11.7544 7.60533 11.7544 6.886C11.7544 6.16667 11.9018 5.52967 12.1964 4.975C12.4998 4.42033 12.9071 3.99133 13.4184 3.688C13.9384 3.376 14.5104 3.22 15.1344 3.22ZM17.6174 6.912C17.6174 6.418 17.5134 5.989 17.3054 5.625C17.1061 5.261 16.8418 4.98367 16.5124 4.793C16.1831 4.60233 15.8278 4.507 15.4464 4.507C15.0651 4.507 14.7098 4.60233 14.3804 4.793C14.0511 4.975 13.7824 5.248 13.5744 5.612C13.3751 5.96733 13.2754 6.392 13.2754 6.886C13.2754 7.38 13.3751 7.81333 13.5744 8.186C13.7824 8.55867 14.0511 8.84467 14.3804 9.044C14.7184 9.23467 15.0738 9.33 15.4464 9.33C15.8278 9.33 16.1831 9.23467 16.5124 9.044C16.8418 8.85333 17.1061 8.576 17.3054 8.212C17.5134 7.83933 17.6174 7.406 17.6174 6.912ZM24.673 3.22C25.2363 3.22 25.739 3.337 26.181 3.571C26.6317 3.805 26.9827 4.15167 27.234 4.611C27.4853 5.07033 27.611 5.625 27.611 6.275V10.5H26.142V6.496C26.142 5.85467 25.9817 5.365 25.661 5.027C25.3403 4.68033 24.9027 4.507 24.348 4.507C23.7933 4.507 23.3513 4.68033 23.022 5.027C22.7013 5.365 22.541 5.85467 22.541 6.496V10.5H21.059V3.337H22.541V4.156C22.7837 3.86133 23.0913 3.63167 23.464 3.467C23.8453 3.30233 24.2483 3.22 24.673 3.22ZM35.9853 10.617C35.3093 10.617 34.6983 10.4653 34.1523 10.162C33.6063 9.85 33.1773 9.41667 32.8653 8.862C32.5533 8.29867 32.3973 7.64867 32.3973 6.912C32.3973 6.184 32.5577 5.53833 32.8783 4.975C33.199 4.41167 33.6367 3.97833 34.1913 3.675C34.746 3.37167 35.3657 3.22 36.0503 3.22C36.735 3.22 37.3547 3.37167 37.9093 3.675C38.464 3.97833 38.9017 4.41167 39.2223 4.975C39.543 5.53833 39.7033 6.184 39.7033 6.912C39.7033 7.64 39.5387 8.28567 39.2093 8.849C38.88 9.41233 38.4293 9.85 37.8573 10.162C37.294 10.4653 36.67 10.617 35.9853 10.617ZM35.9853 9.33C36.3667 9.33 36.722 9.239 37.0513 9.057C37.3893 8.875 37.6623 8.602 37.8703 8.238C38.0783 7.874 38.1823 7.432 38.1823 6.912C38.1823 6.392 38.0827 5.95433 37.8833 5.599C37.684 5.235 37.4197 4.962 37.0903 4.78C36.761 4.598 36.4057 4.507 36.0243 4.507C35.643 4.507 35.2877 4.598 34.9583 4.78C34.6377 4.962 34.382 5.235 34.1913 5.599C34.0007 5.95433 33.9053 6.392 33.9053 6.912C33.9053 7.68333 34.1003 8.28133 34.4903 8.706C34.889 9.122 35.3873 9.33 35.9853 9.33ZM47.6554 3.337V10.5H46.1734V9.655C45.9394 9.94967 45.6317 10.1837 45.2504 10.357C44.8777 10.5217 44.479 10.604 44.0544 10.604C43.491 10.604 42.984 10.487 42.5334 10.253C42.0914 10.019 41.7404 9.67233 41.4804 9.213C41.229 8.75367 41.1034 8.199 41.1034 7.549V3.337H42.5724V7.328C42.5724 7.96933 42.7327 8.46333 43.0534 8.81C43.374 9.148 43.8117 9.317 44.3664 9.317C44.921 9.317 45.3587 9.148 45.6794 8.81C46.0087 8.46333 46.1734 7.96933 46.1734 7.328V3.337H47.6554ZM51.3397 4.546V8.511C51.3397 8.77967 51.4004 8.97467 51.5217 9.096C51.6517 9.20867 51.8684 9.265 52.1717 9.265H53.0817V10.5H51.9117C51.2444 10.5 50.7331 10.344 50.3777 10.032C50.0224 9.72 49.8447 9.213 49.8447 8.511V4.546H48.9997V3.337H49.8447V1.556H51.3397V3.337H53.0817V4.546H51.3397Z" fill="black"/>
</svg>
